# xmcd
#
# Track frame offsets: 
#        150
#        26161
#        52519
#        73443
#        104215
#        126575
#        147473
#        203874
#        247349
#
# Disc length: 3784 seconds
#
# Revision: 3
# Processed by: cddbd v1.5.2PL0 Copyright (c) Steve Scherf et al.
# Submitted via: ExactAudioCopy v1.0b3
#
DISCID=990ec609
DTITLE=Joe Bonamassa - Beacon Theatre: Live from New York [Disc 2 of 2
DTITLE=]
DYEAR=2012
DGENRE=Blues Rock
TTITLE0=Joe Bonamassa - Bird on a Wire
TTITLE1=Joe Bonamassa with John Hiatt - Down Around My Place
TTITLE2=Joe Bonamassa with John Hiatt - I Know a Place
TTITLE3=Joe Bonamassa - Blue and Evil
TTITLE4=Joe Bonamassa with Paul Rodgers - Walk in My Shadows
TTITLE5=Joe Bonamassa with Paul Rodgers - Fire and Water
TTITLE6=Joe Bonamassa - Mountain Time
TTITLE7=Joe Bonamassa - Young Man Blues
TTITLE8=Joe Bonamassa - If Heartaches Were Nickels
EXTD=Location:  - UPC: 8712725739128 - Catalogue number: PRD 7391 2 - Lab
EXTD=el: Provogue Records - ASIN: B008PQAPLU - Release Date: 2012 09 24;
EXTD=Discogs: a900313 - MUSICBRAINZ_ALBUMID: 7799d558-46c5-49bf-b0de-e
EXTD=561565762e0 - AMG: MN0000118243,MW0002410802;
EXTT0=
EXTT1=
EXTT2=
EXTT3=
EXTT4=
EXTT5=
EXTT6=
EXTT7=
EXTT8=
PLAYORDER=
